<?xml version="1.0" standalone="no"?>
<!DOCTYPE svg PUBLIC "-//W3C//DTD SVG 20010904//EN"
 "http://www.w3.org/TR/2001/REC-SVG-20010904/DTD/svg10.dtd">
<svg version="1.0" xmlns="http://www.w3.org/2000/svg"
 width="1600.000000pt" height="1600.000000pt" viewBox="0 0 1600.000000 1600.000000"
 preserveAspectRatio="xMidYMid meet">

<g transform="translate(0.000000,1600.000000) scale(0.100000,-0.100000)"
fill="#000000" stroke="none">
<path d="M0 8000 l0 -8000 8000 0 8000 0 0 130 0 129 -52 24 c-29 13 -86 39
-126 56 -89 39 -132 62 -237 127 -107 67 -231 134 -246 134 -7 0 -54 20 -105
45 -50 25 -98 45 -104 45 -19 0 -175 64 -255 105 -38 19 -79 35 -89 35 -11 0
-16 3 -13 6 9 9 -28 36 -93 69 l-55 27 55 -56 c37 -38 49 -56 37 -56 -21 0
-70 26 -117 61 -19 15 -49 30 -67 34 -37 8 -77 40 -68 54 3 6 -5 15 -19 21
-14 5 -26 14 -26 20 0 6 -10 14 -22 19 -21 8 -95 61 -173 124 -48 38 -115 73
-195 102 -60 21 -90 26 -150 24 -84 -3 -240 15 -268 30 -10 5 -38 10 -61 9
-23 0 -59 6 -79 15 -38 15 -119 32 -232 47 -75 10 -133 23 -172 38 -23 10 -26
9 -21 -5 4 -11 3 -14 -5 -9 -7 4 -12 14 -12 22 0 8 -13 17 -30 21 -17 3 -33
10 -36 14 -3 5 -25 9 -48 9 -25 0 -48 6 -55 14 -6 8 -26 16 -44 19 -18 3 -84
19 -147 37 -109 30 -139 44 -248 116 -27 17 -63 35 -82 39 -19 4 -39 11 -45
14 -16 12 -96 39 -135 46 -40 7 -173 49 -240 76 -75 29 -129 38 -275 43 -77 4
-167 13 -200 21 -33 9 -121 20 -195 24 -75 5 -154 16 -177 24 l-41 14 -13 -39
c-21 -66 -117 -158 -164 -158 -16 0 -1 18 29 34 53 28 91 113 90 201 0 79 -33
178 -85 260 -90 142 -323 299 -558 376 -53 17 -100 36 -106 41 -11 12 110 3
214 -14 69 -11 74 -9 88 42 9 34 93 167 131 208 17 18 34 43 38 55 14 45 69
117 99 128 16 7 42 21 56 31 l27 18 6 -78 c3 -42 11 -203 17 -357 8 -189 15
-287 24 -300 16 -26 136 -65 202 -65 28 0 66 6 84 14 30 12 39 12 68 0 36 -15
71 -11 71 9 0 6 -21 31 -47 55 -39 36 -43 43 -23 37 14 -4 40 -16 58 -26 18
-10 52 -22 75 -25 23 -4 58 -15 78 -25 21 -10 72 -28 115 -39 43 -12 85 -25
93 -30 9 -5 30 -2 53 7 31 12 47 13 81 5 24 -6 52 -9 63 -6 20 5 155 -33 164
-46 3 -4 30 -18 60 -30 30 -13 70 -38 87 -57 18 -18 42 -33 52 -33 12 0 26
-14 38 -37 l18 -38 85 -5 c47 -3 90 -8 97 -13 6 -4 37 -11 70 -17 158 -25 215
-38 225 -48 7 -7 26 -12 43 -12 26 0 36 -7 60 -46 34 -54 79 -94 106 -94 10 0
19 -4 19 -9 0 -5 18 -7 40 -4 33 5 46 1 75 -21 41 -32 133 -76 158 -76 12 0
17 8 17 32 0 30 0 31 20 13 11 -10 20 -24 20 -32 0 -21 81 -53 103 -41 25 13
94 -32 108 -70 6 -15 21 -38 34 -52 13 -14 28 -37 34 -52 6 -16 17 -28 25 -28
10 0 13 6 10 15 -7 18 21 31 39 18 6 -6 27 -13 45 -16 18 -4 45 -15 60 -26 15
-11 39 -23 54 -26 23 -6 26 -4 21 14 -3 12 -9 24 -14 27 -19 11 -8 30 17 29
30 0 50 -25 65 -78 12 -46 6 -57 -19 -34 -26 23 -35 21 -21 -4 10 -20 9 -21
-13 -16 -13 3 -30 2 -38 -3 -13 -8 -12 -12 4 -27 13 -13 20 -15 23 -5 6 17 48
15 63 -3 7 -8 20 -15 29 -15 9 0 22 -4 29 -10 9 -7 9 -7 2 2 -18 22 -12 76 12
92 21 15 23 14 45 -25 13 -23 23 -48 23 -58 0 -22 86 -73 135 -80 31 -5 40
-10 40 -26 0 -22 57 -47 87 -39 9 3 47 -9 84 -26 37 -16 76 -30 87 -30 11 0
34 -16 53 -35 18 -19 40 -35 49 -35 9 0 28 -9 42 -20 14 -11 31 -20 38 -20 7
0 18 -7 26 -16 18 -22 114 -68 181 -88 32 -9 72 -25 90 -35 18 -10 42 -17 53
-15 75 14 117 5 230 -47 28 -13 119 -105 155 -156 30 -43 31 -43 91 -43 33 0
68 -4 78 -10 12 -6 39 -6 77 0 44 7 68 6 101 -5 57 -20 123 -53 148 -75 11 -9
30 -20 43 -23 21 -5 22 -2 22 47 0 47 -3 54 -25 64 -14 7 -32 12 -40 12 -20 0
-85 32 -85 42 0 19 54 30 91 19 20 -6 41 -11 48 -11 8 0 10 834 8 3317 -2
3093 -4 3323 -20 3387 -31 127 -144 328 -315 561 -118 160 -201 253 -313 351
-60 53 -114 105 -120 115 -13 25 9 58 64 95 23 16 47 36 54 44 7 8 13 10 13 5
0 -19 64 -34 143 -34 46 1 83 -4 92 -11 16 -13 39 -4 29 12 -4 7 -2 8 4 4 6
-4 9 -13 5 -21 -4 -11 2 -15 22 -15 14 0 24 4 21 9 -3 5 1 12 10 15 8 3 12 2
9 -4 -3 -6 -1 -10 4 -10 6 0 19 -6 28 -14 10 -8 75 -57 146 -110 l127 -96 0
523 0 522 -33 -65 c-27 -54 -40 -69 -81 -91 -27 -15 -68 -30 -90 -33 -23 -4
-77 -22 -121 -41 -44 -18 -104 -41 -133 -50 -29 -9 -58 -22 -65 -29 -7 -7 -24
-15 -37 -18 -34 -8 -82 -26 -160 -58 -36 -15 -87 -33 -114 -39 -27 -7 -61 -18
-75 -26 -14 -7 -73 -25 -131 -40 -186 -46 -381 -45 -585 6 -44 12 -100 25
-124 30 -24 5 -58 18 -75 29 -17 11 -51 30 -75 42 -50 26 -121 93 -156 146
-13 21 -47 62 -76 92 -71 75 -76 84 -131 267 -12 43 -1 121 23 155 10 15 19
40 19 55 0 17 8 33 20 41 11 7 20 21 20 31 0 11 9 23 20 26 11 3 20 15 20 25
0 11 6 23 13 27 21 14 109 133 98 133 -6 0 -11 7 -11 15 0 8 -10 16 -22 17
-54 3 -134 -5 -147 -16 -8 -6 -61 -20 -118 -32 -81 -16 -116 -19 -166 -12 -65
9 -221 62 -248 85 -8 7 -18 13 -22 13 -11 0 -140 90 -182 128 -24 20 -60 48
-80 62 -30 20 -183 155 -262 233 -80 78 -172 215 -220 329 -14 35 -35 72 -45
84 -10 11 -18 26 -18 34 0 16 -15 66 -41 134 -39 100 -19 208 51 276 26 25 38
29 123 35 82 6 102 4 149 -13 30 -11 87 -24 126 -27 58 -6 73 -11 78 -27 3
-12 12 -17 20 -14 8 3 12 2 9 -4 -3 -5 7 -16 22 -24 15 -8 53 -38 83 -67 30
-28 69 -56 85 -61 17 -6 50 -19 75 -31 74 -34 84 -38 110 -41 14 -2 43 -8 65
-15 60 -19 318 10 381 42 16 8 35 12 42 10 7 -3 11 1 10 8 -2 8 7 15 20 17 12
2 22 8 22 13 0 5 9 9 20 9 19 0 24 10 21 38 -1 6 3 12 9 12 5 0 10 -4 10 -10
0 -5 5 -10 10 -10 15 0 12 67 -2 74 -10 5 -10 7 0 12 14 7 16 44 2 44 -5 0
-10 18 -10 40 0 33 -3 40 -20 40 -13 0 -20 7 -20 20 0 17 7 20 40 20 l40 0 0
40 c0 40 0 40 38 40 26 0 42 6 52 20 8 11 22 20 32 20 10 0 18 5 18 10 0 6 23
10 50 10 43 0 50 3 50 20 0 16 7 20 36 20 23 0 43 7 53 18 13 15 32 19 106 19
50 1 110 6 135 13 25 6 63 13 85 15 22 2 63 7 90 11 67 8 101 8 160 -4 108
-21 238 -100 271 -163 17 -34 19 -162 3 -242 -14 -70 -33 -83 -169 -123 -79
-23 -112 -28 -195 -26 -55 1 -112 -1 -127 -4 -26 -5 -28 -9 -28 -57 0 -153
-40 -351 -97 -485 -36 -85 -109 -202 -125 -202 -5 0 -13 -11 -18 -25 -5 -14
-15 -25 -22 -25 -7 0 -24 -17 -38 -38 -14 -20 -30 -41 -37 -45 -7 -4 -13 -19
-13 -32 0 -19 7 -26 28 -31 15 -3 45 -12 67 -19 136 -45 352 -98 496 -122 139
-23 481 -22 857 2 l282 19 0 26 0 27 -437 -5 c-498 -5 -599 2 -835 63 -155 40
-316 96 -320 110 -6 20 45 16 140 -13 121 -37 239 -66 362 -88 78 -14 177 -18
540 -21 245 -3 469 -2 498 2 l52 6 0 630 0 630 -30 6 c-20 3 -30 12 -30 23 0
13 -15 20 -60 30 -38 8 -60 18 -60 26 0 8 -9 14 -20 14 -13 0 -20 7 -20 20 0
11 -7 20 -15 20 -7 0 -18 6 -22 13 -8 12 -59 35 -100 44 -16 4 -23 13 -23 29
0 17 -6 24 -20 24 -11 0 -20 5 -20 10 0 6 -9 10 -20 10 -11 0 -20 5 -20 11 0
17 -40 49 -62 49 -10 0 -18 6 -18 13 0 17 -45 67 -60 67 -7 0 -20 8 -29 18
-25 28 -77 62 -95 62 -9 0 -16 8 -16 20 0 13 -7 20 -20 20 -11 0 -20 4 -20 10
0 5 -11 12 -25 16 -14 3 -23 9 -20 13 2 4 -5 14 -16 21 -10 8 -19 22 -19 32 0
11 -7 18 -20 18 -11 0 -20 5 -20 10 0 17 -56 70 -75 70 -9 0 -19 9 -22 20 -3
11 -9 20 -14 20 -5 0 -9 6 -9 14 0 8 -9 18 -20 21 -11 3 -20 12 -20 18 0 7 -9
19 -20 27 -11 8 -20 22 -20 32 0 10 -4 18 -10 18 -5 0 -10 5 -10 11 0 6 -14
24 -30 39 -17 15 -30 32 -30 37 0 5 -9 15 -20 23 -11 8 -20 25 -20 37 0 17 -6
23 -21 23 -15 0 -19 4 -15 16 7 18 -35 114 -58 134 -15 11 -38 78 -39 108 0 6
-6 12 -14 12 -7 0 -13 10 -13 23 0 12 -9 29 -20 37 -14 10 -20 26 -20 52 0 21
-4 38 -10 38 -5 0 -10 9 -10 20 0 13 -7 20 -20 20 -13 0 -20 7 -20 20 0 13 7
20 20 20 17 0 20 7 20 40 l0 40 40 0 40 0 0 40 0 40 -40 0 -40 0 0 80 c0 73 2
80 20 80 13 0 20 -7 20 -20 0 -11 5 -20 10 -20 6 0 10 9 10 20 0 28 18 25 26
-5 3 -14 11 -22 17 -18 6 3 7 1 3 -6 -8 -13 33 -111 46 -111 4 0 8 -9 8 -21 0
-14 5 -19 18 -17 11 2 20 0 20 -5 4 -20 34 -67 67 -102 20 -22 48 -56 61 -75
13 -19 46 -64 73 -100 27 -36 62 -82 78 -103 25 -33 204 -214 323 -325 60 -57
130 -112 141 -112 4 0 31 -21 60 -46 28 -25 53 -43 56 -40 3 3 17 -6 32 -20
14 -14 43 -34 63 -45 20 -10 49 -30 64 -44 15 -14 46 -34 68 -44 23 -10 50
-28 60 -40 11 -11 27 -21 37 -21 10 0 21 -4 24 -10 3 -5 13 -10 21 -10 12 0
14 269 14 2030 l0 2030 -8000 0 -8000 0 0 -8000z m13474 7350 c3 -27 9 -72 12
-100 4 -27 10 -50 15 -50 5 0 9 -18 9 -39 0 -22 4 -41 8 -43 4 -1 15 -50 24
-108 22 -139 39 -210 49 -210 5 0 9 -12 9 -26 0 -26 23 -116 42 -166 6 -16 17
-28 24 -28 8 0 14 -4 14 -10 0 -18 32 -10 52 12 24 28 33 16 43 -61 4 -31 8
-63 11 -71 2 -8 10 -53 19 -99 45 -245 89 -429 131 -546 8 -23 14 -64 14 -93
0 -29 4 -52 8 -52 4 0 8 -9 9 -21 1 -11 7 -26 13 -34 5 -7 25 -41 42 -76 17
-35 35 -67 40 -70 10 -6 46 -98 58 -149 5 -19 18 -54 30 -77 11 -23 20 -53 20
-66 0 -16 7 -26 19 -30 16 -4 19 -14 20 -63 0 -67 -13 -137 -28 -142 -6 -2
-11 -8 -11 -13 0 -6 5 -7 10 -4 6 3 10 -1 10 -9 0 -28 -122 -16 -150 14 -3 3
-17 11 -33 18 -15 6 -32 24 -38 38 -5 15 -23 42 -39 61 -17 19 -30 43 -30 53
0 11 -9 29 -19 39 -11 11 -17 22 -14 24 2 3 -8 29 -22 58 -32 63 -86 210 -80
219 2 3 -5 19 -16 36 -10 16 -19 43 -19 59 0 17 -13 62 -29 100 -27 66 -42
114 -60 195 -4 19 -16 50 -25 69 -10 18 -21 66 -26 105 -4 39 -17 107 -29 150
-11 44 -21 96 -21 116 0 20 -4 40 -9 45 -14 16 -31 124 -31 196 0 37 -7 103
-15 146 -8 43 -15 94 -15 114 0 20 -4 49 -10 65 -5 16 -14 103 -20 194 -6 91
-13 186 -16 213 -4 31 -2 47 5 47 7 0 11 23 11 60 0 44 4 60 14 60 9 0 16 -17
20 -50z m-3779 -1185 c223 -35 414 -95 648 -205 234 -109 532 -323 690 -494
51 -56 57 -64 57 -75 0 -5 6 -16 13 -23 7 -7 51 -76 96 -153 46 -77 97 -160
113 -185 37 -56 148 -284 148 -304 0 -7 6 -19 14 -25 8 -7 17 -27 21 -44 3
-18 15 -63 27 -100 28 -92 18 -112 -60 -122 -78 -10 -80 -11 -113 -77 -93
-185 -148 -474 -165 -870 -7 -181 -31 -240 -78 -193 -8 8 -22 15 -30 15 -9 0
-16 5 -16 10 0 6 -8 10 -18 10 -10 0 -25 11 -32 25 -7 14 -33 34 -57 46 -42
20 -43 22 -43 67 0 70 -18 218 -35 292 -43 185 -54 195 -31 30 15 -104 13
-216 -3 -247 -11 -20 -62 18 -128 94 -65 76 -122 180 -224 411 -101 228 -132
270 -339 457 -149 134 -189 163 -390 279 -241 138 -624 247 -1047 297 -171 20
-455 3 -658 -41 -27 -5 -79 -15 -115 -20 -142 -21 -247 -66 -365 -155 -157
-118 -228 -219 -349 -499 -62 -142 -86 -186 -86 -157 0 16 73 203 117 300 35
78 39 91 23 91 -31 0 -199 -372 -179 -396 7 -9 3 -27 -14 -61 -13 -26 -34 -91
-46 -143 -12 -52 -26 -108 -31 -125 -5 -16 -19 -84 -31 -150 -29 -156 -32
-513 -5 -665 50 -282 152 -539 302 -758 24 -35 44 -71 44 -79 0 -8 4 -12 9 -9
4 3 21 -20 36 -52 21 -43 59 -88 159 -184 72 -70 158 -154 191 -187 80 -78
252 -188 345 -221 42 -14 80 -29 85 -32 6 -3 39 -13 75 -22 36 -9 88 -27 115
-40 28 -13 75 -34 105 -47 30 -13 65 -31 76 -42 12 -10 38 -20 58 -21 40 -4
61 -15 30 -17 -56 -4 -230 3 -304 12 -220 26 -550 109 -719 181 -81 34 -52 12
38 -30 253 -118 376 -150 861 -225 27 -5 -279 -11 -345 -8 -38 2 -41 0 -53
-32 -16 -45 -15 -64 6 -85 29 -30 48 -56 35 -48 -7 4 -13 3 -13 -2 0 -11 59
-36 74 -33 5 1 12 -2 15 -7 7 -9 124 -36 251 -57 153 -26 389 -38 655 -33
l260 4 -140 -14 c-176 -16 -600 -10 -770 12 -437 57 -605 93 -803 173 -35 14
-65 23 -68 20 -7 -7 105 -72 208 -121 94 -44 125 -66 94 -66 -9 0 -16 -7 -16
-15 0 -8 5 -15 10 -15 6 0 10 -7 10 -16 0 -8 5 -12 10 -9 6 3 10 1 10 -4 0
-24 -87 -10 -175 28 -49 22 -91 38 -93 36 -1 -1 2 -14 9 -27 16 -37 102 -76
338 -155 93 -31 291 -131 266 -134 -12 -2 31 -9 210 -37 137 -21 208 -30 475
-62 91 -11 184 -28 207 -36 70 -27 85 -84 62 -223 -16 -91 -22 -101 -67 -101
-81 0 -115 57 -138 235 -10 72 -29 76 -38 8 -11 -75 -44 -260 -63 -345 -15
-70 -19 -78 -40 -78 -16 0 -23 6 -23 20 0 13 -7 20 -20 20 -17 0 -20 7 -20 40
0 22 -4 40 -8 40 -5 0 -15 11 -22 25 -7 13 -17 22 -23 18 -5 -3 -8 14 -6 44 5
69 -10 82 -123 105 -116 23 -472 78 -554 85 l-62 6 -10 -49 c-22 -106 -35
-194 -30 -200 16 -16 280 -55 603 -89 82 -9 152 -18 154 -21 13 -12 -21 -11
-189 6 -102 11 -234 24 -295 30 -60 5 -148 15 -195 21 -127 17 -139 9 -52 -32
40 -19 69 -38 66 -42 -4 -4 13 -16 37 -27 77 -35 88 -48 95 -115 6 -58 5 -61
-23 -82 -17 -12 -38 -37 -47 -57 -9 -20 -21 -36 -26 -36 -21 0 -87 -78 -93
-110 -13 -60 -74 -174 -121 -221 -25 -26 -65 -56 -89 -67 -96 -45 -238 -35
-365 26 -34 16 -64 27 -67 24 -2 -3 -2 -16 1 -28 5 -20 2 -24 -15 -24 -26 0
-38 -25 -21 -45 18 -22 8 -27 -29 -14 -18 6 -35 9 -38 6 -14 -15 13 -65 68
-122 87 -91 86 -98 -82 -356 -146 -227 -202 -339 -169 -339 6 0 10 4 10 9 0 5
9 11 20 14 14 3 20 14 20 32 0 34 17 65 49 90 14 11 41 34 60 52 40 38 51 41
51 12 0 -18 2 -19 15 -9 8 7 15 18 15 25 0 6 9 20 20 30 11 10 18 20 16 23 -3
2 8 17 22 34 15 16 37 47 48 69 12 22 33 49 48 60 l26 20 0 -53 c0 -73 -23
-147 -94 -303 -37 -79 -49 -115 -43 -121 7 -7 142 268 152 308 10 40 31 41 85
3 28 -19 59 -35 70 -35 11 0 42 -11 68 -24 l47 -24 -7 -109 c-8 -113 -39 -250
-121 -533 -25 -85 -50 -180 -57 -210 -14 -61 -26 -90 -39 -90 -4 0 -18 9 -31
20 -13 11 -28 20 -33 20 -16 0 -87 33 -87 41 0 13 -56 28 -132 34 -45 4 -81
12 -88 20 -6 8 -26 17 -43 21 -36 8 -67 25 -67 38 0 4 15 29 34 55 19 26 53
86 75 133 55 116 63 138 51 138 -6 0 -10 -5 -10 -11 0 -5 -4 -8 -10 -4 -5 3
-17 -6 -26 -20 -9 -14 -26 -25 -39 -25 -12 0 -40 -13 -62 -29 -23 -16 -43 -28
-46 -25 -2 2 -10 -2 -17 -11 -7 -8 -17 -15 -23 -15 -5 0 -16 -8 -24 -17 -8
-10 -12 -12 -8 -5 3 6 1 12 -4 12 -6 0 -11 -6 -11 -12 0 -7 -20 -21 -45 -31
-25 -11 -45 -23 -45 -29 0 -5 -9 -7 -19 -3 -15 4 -28 -5 -55 -40 l-35 -46 -16
31 c-26 51 -17 70 60 123 38 26 78 61 88 77 l19 30 -44 1 c-23 1 -58 1 -77 0
-35 -3 -53 12 -44 35 3 8 29 27 58 44 59 34 105 82 105 110 0 17 -2 16 -40 -2
-40 -20 -63 -18 -54 6 3 8 0 49 -6 93 -13 97 -3 133 57 196 96 102 230 335
259 450 14 55 15 78 6 125 -24 125 -25 174 -3 217 17 31 21 58 21 130 0 49 7
153 15 230 8 77 15 172 15 211 l0 71 -27 -4 c-45 -6 -103 -26 -103 -34 0 -4
-11 -10 -25 -13 -14 -4 -25 -13 -25 -21 0 -8 -8 -15 -17 -15 -35 0 -92 -35
-93 -55 0 -24 -47 -45 -98 -45 -34 0 -40 -8 -20 -28 9 -9 9 -12 0 -12 -6 0
-17 9 -24 20 -7 11 -18 20 -25 20 -13 0 -26 12 -67 60 -15 18 -30 30 -33 27
-3 -4 11 -44 32 -91 20 -46 34 -89 30 -96 -5 -8 -19 -9 -39 -5 -17 4 -58 9
-91 12 -33 3 -66 10 -73 15 -23 20 -22 2 3 -49 14 -27 59 -89 100 -137 41 -47
77 -91 80 -97 9 -14 -14 -39 -36 -39 -11 0 -36 -16 -58 -35 -21 -19 -42 -35
-46 -35 -4 0 -20 -9 -35 -20 -46 -33 -115 -44 -204 -32 -87 12 -109 26 -137
88 -21 47 -59 265 -59 339 0 42 -2 47 -13 35 -27 -29 -51 -134 -76 -325 -27
-204 -70 -296 -151 -324 -19 -7 -55 -20 -80 -30 -96 -40 -128 -49 -222 -67
-93 -17 -99 -17 -137 0 -43 20 -62 54 -81 146 -6 30 -15 73 -20 95 -5 22 -12
63 -15 91 -7 49 -9 52 -60 77 l-53 26 -7 -22 c-13 -39 -30 -182 -44 -366 -1
-11 -15 -13 -78 -6 -99 10 -127 9 -131 -3 -4 -12 -48 -3 -61 12 -5 6 -11 34
-14 61 -10 95 -19 119 -58 159 -35 35 -39 43 -39 90 0 57 7 70 60 108 73 53
365 201 419 213 19 4 74 27 122 51 48 25 201 83 341 129 139 47 281 95 315
107 55 20 66 21 98 9 35 -12 37 -12 78 25 23 21 52 51 64 67 30 40 83 77 110
77 63 0 96 94 50 141 -28 28 -40 66 -23 74 6 3 -4 3 -23 0 -19 -3 -40 0 -48 6
-11 10 -7 18 22 46 19 18 34 38 32 42 -1 5 13 20 32 33 38 26 59 53 48 64 -4
4 -16 -1 -27 -11 -23 -20 -25 -14 -9 18 15 28 32 39 40 25 12 -19 49 2 49 28
0 15 13 39 33 58 17 18 64 67 102 110 73 79 193 163 220 152 9 -3 15 -18 15
-36 0 -18 5 -30 13 -30 21 0 93 55 172 130 95 89 178 147 310 215 61 32 115
61 121 66 7 5 12 47 13 97 2 73 7 97 32 150 53 114 54 111 -46 204 -98 92
-144 151 -200 253 -21 39 -54 95 -74 125 l-36 55 -168 -2 c-99 -1 -175 -7
-188 -13 -32 -18 -62 9 -81 71 -14 43 -78 416 -78 451 0 4 14 8 30 8 38 0 42
-9 75 -170 42 -209 61 -296 68 -306 5 -9 315 -9 324 0 2 1 -12 36 -31 77 -61
134 -107 271 -151 444 -83 326 -96 512 -70 965 15 244 16 313 7 319 -7 4 -15
30 -18 57 -7 58 23 174 92 353 25 63 43 115 42 116 -2 2 -27 -22 -56 -53 -79
-85 -159 -282 -178 -442 -3 -30 -25 -140 -47 -245 l-41 -190 3 -440 2 -440
-27 -12 c-35 -16 -188 -16 -233 0 -19 7 -43 24 -54 39 -19 25 -20 44 -22 235
-1 204 -11 285 -26 218 -14 -63 13 349 35 525 8 63 22 145 30 181 37 157 227
567 291 629 l36 35 156 2 156 2 129 203 c145 227 176 272 258 373 79 98 110
146 110 171 0 12 -14 48 -30 80 -19 35 -30 69 -28 86 3 26 13 33 98 72 52 24
138 58 190 76 52 18 183 73 290 122 226 105 263 120 385 159 147 47 416 97
643 119 129 13 490 4 607 -15z m4851 -310 c6 -11 12 -49 12 -84 1 -36 6 -69
12 -75 14 -14 12 -45 -4 -62 -21 -21 -26 -18 -26 16 0 23 -4 30 -20 30 -17 0
-20 7 -20 40 0 22 5 40 10 40 16 0 12 60 -5 76 -13 14 -13 19 0 44 8 16 16 42
16 57 1 18 4 13 8 -17 4 -25 12 -54 17 -65z m34 -381 c0 -19 5 -34 10 -34 6 0
10 -9 10 -20 0 -11 5 -20 10 -20 6 0 10 -9 10 -20 0 -11 4 -20 9 -20 10 0 31
-55 30 -79 0 -9 -5 -4 -11 12 -6 16 -17 27 -29 27 -10 0 -19 5 -19 10 0 6 -9
10 -20 10 -13 0 -20 7 -20 20 0 13 7 20 20 20 11 0 20 5 20 10 0 6 -8 10 -18
10 -16 0 -19 9 -19 60 -1 33 3 57 8 54 5 -3 9 -21 9 -40z m-6078 -665 c9 -5
41 -9 71 -9 33 0 72 -8 98 -20 24 -11 53 -20 65 -20 12 0 55 -16 97 -35 42
-19 82 -35 89 -35 8 0 40 -25 72 -55 31 -30 62 -55 67 -55 5 0 9 -9 9 -20 0
-11 5 -20 10 -20 6 0 10 -9 10 -19 0 -11 5 -21 12 -23 6 -2 12 -13 13 -24 1
-10 5 -41 9 -68 8 -48 -6 -106 -25 -106 -5 0 -9 -13 -9 -30 0 -16 -4 -30 -10
-30 -5 0 -10 -11 -10 -25 0 -14 -6 -25 -12 -25 -7 0 -21 -14 -30 -30 -9 -17
-24 -30 -33 -30 -8 0 -15 -4 -15 -10 0 -14 -63 -80 -77 -80 -7 0 -24 -11 -39
-25 -25 -23 -38 -29 -56 -26 -5 0 -8 -3 -8 -8 0 -5 -16 -15 -35 -22 -19 -7
-35 -17 -35 -21 0 -4 -9 -8 -20 -8 -11 0 -20 -4 -20 -10 0 -5 -11 -10 -25 -10
-26 0 -34 -15 -12 -23 6 -2 -11 -7 -38 -10 -47 -7 -85 -32 -85 -57 0 -12 -15
-20 -48 -26 -15 -3 -31 -9 -36 -15 -6 -5 -18 -9 -28 -9 -12 0 -18 -8 -18 -22
0 -21 -10 -25 -98 -47 -70 -16 -111 -21 -140 -16 -25 4 -42 3 -42 -3 0 -5 -27
-15 -60 -22 -33 -7 -60 -16 -60 -20 0 -15 -81 -36 -161 -43 -14 -1 -33 -9 -42
-19 -9 -9 -21 -18 -26 -20 -5 -1 -19 -79 -30 -173 -43 -336 -98 -480 -191
-499 -42 -8 -68 4 -133 64 -111 101 -163 266 -174 550 -4 118 -2 183 11 270
38 265 81 369 261 640 110 165 200 267 299 343 54 41 82 46 101 20 11 -14 16
-15 28 -5 15 13 21 15 122 33 145 26 394 31 437 8z m3158 -419 c262 -29 319
-42 377 -85 109 -83 162 -199 198 -440 33 -218 15 -441 -55 -695 -64 -230 -69
-246 -94 -282 -19 -28 -21 -38 -11 -51 13 -18 30 -24 20 -7 -3 5 0 7 8 4 9 -3
15 -19 15 -40 0 -20 7 -40 15 -47 23 -17 47 -94 47 -149 0 -38 -5 -50 -26 -67
-27 -21 -67 -25 -113 -12 -21 6 -56 51 -78 101 -4 8 -10 17 -14 20 -5 3 -9 20
-11 38 -1 20 -13 42 -29 58 -32 31 -28 41 -64 -139 -41 -208 -77 -287 -147
-323 -49 -25 -175 -29 -333 -8 -77 10 -156 18 -175 18 l-35 1 -7 -98 c-4 -54
-14 -122 -22 -150 -8 -29 -29 -117 -45 -197 -60 -287 -76 -410 -59 -455 10
-29 8 -38 -22 -90 -68 -119 -95 -138 -259 -181 -105 -27 -121 -29 -121 -13 0
19 45 55 110 90 33 17 60 36 60 40 0 5 -18 9 -40 9 -34 0 -42 4 -50 25 -11 28
-20 31 -38 13 -17 -17 -15 -28 6 -28 34 -1 -32 -29 -68 -30 -20 0 -62 -7 -95
-15 -32 -9 -86 -18 -119 -21 -52 -4 -58 -3 -42 8 31 20 86 80 86 92 0 17 95
129 116 136 42 15 56 1 53 -54 -5 -88 0 -116 17 -116 12 0 14 7 10 28 -14 79
-17 146 -6 173 11 25 9 32 -14 60 -14 17 -26 35 -26 40 0 17 -54 9 -75 -11
-12 -11 -53 -30 -91 -41 -38 -11 -77 -23 -86 -26 -10 -3 -18 0 -18 6 0 6 31
26 69 45 62 32 138 92 128 103 -3 2 -20 -4 -38 -15 -80 -44 -219 -86 -459
-138 -41 -8 -94 -20 -117 -25 -110 -24 -88 -1 30 30 42 12 87 21 100 21 13 0
27 4 32 9 13 11 130 51 151 51 18 0 139 37 166 51 10 5 26 9 35 9 28 1 53 25
54 51 0 13 3 18 6 12 2 -7 9 -13 14 -13 6 0 8 4 4 9 -3 5 -1 12 4 15 4 3 12
20 16 38 6 29 8 31 15 13 4 -11 6 7 2 43 -7 83 13 169 47 203 35 34 178 142
227 170 33 20 54 23 139 24 92 0 100 2 103 20 5 30 43 136 58 165 16 29 50 70
58 70 3 0 -4 -20 -16 -45 -19 -39 -20 -47 -8 -59 17 -15 183 -35 373 -43 216
-10 241 16 277 286 11 84 20 159 20 167 0 8 29 22 73 35 85 25 106 43 77 68
-13 11 -28 54 -45 131 -34 148 -34 145 -44 214 -5 32 -15 72 -22 88 -9 21 -10
73 -6 188 l7 158 -41 4 c-30 3 -43 -1 -49 -12 -5 -9 -10 -125 -11 -259 -2
-189 -5 -240 -14 -227 -15 20 -25 20 -25 0 0 -11 -5 -14 -16 -10 -9 3 -28 7
-42 7 -23 1 -22 3 8 9 l35 7 -42 2 c-24 0 -43 6 -43 11 0 6 -18 10 -40 10 -29
0 -40 4 -40 15 0 8 -4 15 -10 15 -5 0 -10 9 -10 20 0 13 -7 20 -20 20 -11 0
-20 6 -20 14 0 8 -9 18 -20 21 -11 3 -20 12 -20 19 0 19 -48 56 -73 56 -13 0
-31 6 -41 13 -17 12 -19 35 -21 236 -3 163 0 223 8 226 7 2 118 -1 247 -8 129
-7 248 -11 265 -9 30 4 31 5 43 85 6 45 15 96 18 112 4 17 3 27 -1 23 -8 -7
-21 -57 -38 -143 l-12 -60 -70 3 c-128 6 -478 31 -481 35 -2 2 0 28 6 58 5 30
12 70 15 89 23 140 99 361 133 388 21 16 35 15 242 -8z m-2126 -314 c-6 -25
-24 -37 -24 -15 0 15 21 52 26 46 3 -3 2 -16 -2 -31z m26 -121 c0 -10 -41 -11
-49 -1 -8 10 -3 11 19 8 17 -2 30 -5 30 -7z m35 -75 c-3 -5 -17 -10 -31 -10
-17 0 -27 -8 -34 -25 -10 -26 -24 -32 -35 -15 -10 16 13 48 37 53 44 8 69 7
63 -3z m0 -69 c6 -11 -33 -41 -54 -41 -10 0 -8 7 9 25 25 27 35 30 45 16z
m-1304 -652 c39 -42 37 -63 -13 -99 -45 -33 -71 -33 -100 2 -26 29 -22 68 9
100 35 37 68 36 104 -3z m844 -65 c-16 -13 -43 -36 -60 -50 l-29 -26 24 -19
c36 -27 67 -23 102 11 26 26 30 36 25 65 -7 40 4 46 22 11 17 -31 7 -58 -35
-95 -47 -42 -87 -41 -131 1 -42 41 -42 58 2 97 27 23 45 31 73 31 l37 -1 -30
-25z m1506 -128 c-17 -34 -71 -189 -71 -204 0 -29 58 -72 95 -72 25 0 35 4 35
15 0 15 33 33 79 41 l24 5 -6 -183 c-6 -231 -20 -287 -80 -341 -40 -37 -171
-127 -183 -127 -4 0 -32 -15 -63 -34 -31 -19 -73 -37 -93 -41 -37 -7 -38 -6
-38 22 0 17 -8 34 -20 43 -11 8 -20 18 -20 23 0 17 -93 97 -113 97 -11 0 -36
-10 -56 -22 l-36 -22 20 25 c11 13 27 31 35 40 141 150 285 369 421 642 41 82
76 141 77 131 2 -9 -1 -26 -7 -38z m4764 -111 c27 -28 35 -44 35 -72 0 -76
-85 -113 -129 -57 -25 32 -27 64 -5 107 35 69 48 72 99 22z m-14096 -125 c-5
-10 -8 5 -8 40 1 55 1 55 9 15 4 -22 4 -47 -1 -55z m9862 -267 c-12 -20 -14
-14 -5 12 4 9 9 14 11 11 3 -2 0 -13 -6 -23z m-9241 -83 c0 -15 -7 -33 -15
-40 -13 -11 -15 -6 -15 33 0 37 3 45 15 41 8 -4 15 -18 15 -34z m10970 -580
c0 -10 6 -25 13 -32 33 -33 30 -103 -4 -93 -14 5 -19 1 -19 -12 0 -15 -2 -16
-10 -3 -6 10 -10 11 -10 3 0 -9 -16 -13 -45 -13 -33 0 -45 4 -45 15 0 8 -9 15
-20 15 -17 0 -20 7 -20 50 0 35 4 50 13 50 7 0 23 9 34 19 18 17 85 32 106 23
4 -2 7 -12 7 -22z m-305 -1 c17 -11 40 -24 53 -29 12 -6 22 -18 22 -30 0 -11
5 -20 10 -20 6 0 10 -9 10 -20 0 -11 -4 -20 -10 -20 -5 0 -10 -7 -10 -15 0 -8
-8 -24 -17 -34 -10 -10 -30 -33 -45 -50 -17 -18 -37 -31 -52 -31 -42 0 -86 12
-86 24 0 6 -11 28 -25 48 -37 54 -31 127 13 181 21 25 98 23 137 -4z m-4539
-167 c-22 -5 -87 18 -81 28 2 4 25 0 50 -9 26 -9 39 -17 31 -19z m1697 -209
c-7 -2 -19 -2 -25 0 -7 3 -2 5 12 5 14 0 19 -2 13 -5z m1199 -289 c56 -14 134
-49 148 -65 3 -3 14 -11 26 -17 12 -6 39 -26 61 -44 23 -18 87 -69 143 -113
59 -46 136 -119 181 -172 43 -50 94 -104 114 -119 42 -31 44 -41 10 -50 -33
-8 -32 -20 5 -54 17 -16 30 -38 30 -52 0 -33 14 -50 50 -62 17 -6 39 -23 48
-38 14 -24 15 -34 4 -73 -12 -45 -12 -46 22 -76 28 -24 36 -39 38 -72 3 -39 5
-42 30 -39 31 4 50 -22 41 -56 -3 -12 0 -35 6 -53 9 -27 8 -30 -5 -25 -9 3
-20 6 -25 6 -5 0 -25 16 -45 35 -19 19 -45 35 -57 35 -12 0 -56 14 -96 31 -64
27 -81 30 -127 24 -43 -5 -54 -3 -54 7 0 15 110 70 177 87 52 14 62 28 29 41
-14 5 -26 16 -26 25 0 11 -12 15 -52 15 -70 0 -229 -30 -249 -47 -21 -18 -59
-17 -59 2 0 18 156 99 240 124 34 11 56 24 58 33 4 22 -38 49 -91 59 -43 8
-195 -6 -232 -21 -11 -5 -54 -11 -95 -15 -84 -7 -86 -12 20 59 60 39 175 92
235 107 62 16 61 15 45 34 -23 28 -117 19 -221 -21 -89 -35 -179 -63 -279 -86
-25 -6 -58 -19 -73 -30 -16 -11 -30 -18 -33 -15 -8 8 25 68 55 100 l26 29 -25
16 c-13 10 -61 53 -105 97 -80 81 -105 125 -105 189 0 14 -4 28 -10 31 -16 10
-11 56 11 101 13 27 37 54 66 73 25 17 52 40 60 51 17 24 8 23 85 4z m-4572
-480 c0 -8 -4 -13 -9 -10 -5 3 -30 -6 -55 -20 -25 -14 -46 -21 -46 -16 0 15
51 49 80 55 14 2 26 5 28 6 1 0 2 -6 2 -15z m6917 -40 c14 -13 33 -26 42 -29
34 -10 60 -92 59 -188 0 -83 -1 -87 -23 -93 -27 -7 -48 3 -39 17 3 5 2 8 -3 7
-13 -4 -73 23 -73 33 0 5 -9 9 -20 9 -11 0 -20 7 -20 15 0 8 -3 14 -7 14 -21
-3 -33 2 -33 16 0 8 -4 15 -10 15 -5 0 -10 -9 -10 -20 0 -17 -7 -20 -40 -20
-22 0 -40 -4 -40 -10 0 -16 -109 -12 -126 5 -9 8 -12 15 -8 15 4 0 -3 9 -15
19 -17 15 -20 25 -15 47 5 20 4 25 -6 19 -8 -5 -7 1 3 16 8 13 18 38 22 55 6
32 30 44 86 44 10 0 28 8 39 18 43 37 196 34 237 -4z m-2833 -74 c8 0 18 -9
21 -20 3 -11 13 -20 21 -20 8 0 14 -4 14 -10 0 -5 11 -10 24 -10 13 0 47 -7
75 -17 l51 -16 0 -44 c0 -42 -25 -83 -50 -83 -5 0 -10 -5 -10 -10 0 -6 -20
-15 -45 -22 -32 -9 -45 -17 -45 -30 0 -11 -7 -18 -20 -18 -25 0 -63 -70 -42
-77 6 -3 12 -13 12 -24 0 -15 -7 -19 -35 -19 -28 0 -35 4 -35 20 0 11 -7 20
-15 20 -10 0 -15 -10 -15 -30 0 -16 5 -30 11 -30 21 0 39 -29 39 -64 0 -25 4
-36 15 -36 8 0 15 -9 15 -20 0 -11 -4 -20 -10 -20 -5 0 -10 -6 -10 -14 0 -8
-11 -17 -24 -20 -14 -3 -32 -13 -40 -22 -15 -14 -17 -14 -32 0 -8 9 -20 16
-25 16 -5 0 -9 7 -9 15 0 8 -3 15 -7 15 -22 1 -35 18 -25 36 14 28 25 97 14
90 -5 -3 -24 -1 -41 5 -37 13 -38 24 -12 117 23 82 28 95 81 205 69 146 115
200 132 156 4 -11 14 -19 22 -19z m5181 20 c3 -6 -1 -7 -9 -4 -18 7 -21 14 -7
14 6 0 13 -4 16 -10z m-6022 -17 c56 -5 67 -9 67 -24 0 -17 9 -19 85 -19 56 0
85 -4 85 -11 0 -7 11 -9 28 -5 15 3 21 3 15 0 -7 -3 -13 -10 -13 -15 0 -6 5
-7 10 -4 6 3 10 -2 10 -12 0 -19 -54 -181 -64 -190 -3 -4 -6 -15 -6 -25 0 -52
-54 -69 -150 -47 -25 6 -65 12 -90 15 -37 3 -51 11 -81 44 -20 22 -42 40 -48
40 -7 0 -9 5 -6 10 4 6 -5 24 -19 40 -13 17 -28 40 -31 52 -4 13 -13 30 -20
38 -8 8 -22 36 -33 61 l-20 46 21 -2 c12 -2 40 1 62 5 53 10 115 11 198 3z
m117 -13 c0 -5 -9 -10 -20 -10 -11 0 -20 5 -20 10 0 6 9 10 20 10 11 0 20 -4
20 -10z m6170 -76 c14 -14 34 -31 45 -39 16 -12 17 -14 4 -15 -9 0 -23 8 -30
17 -8 9 -32 30 -54 46 -31 23 -35 28 -15 22 14 -4 36 -18 50 -31z m60 -14 c0
-5 -4 -10 -10 -10 -5 0 -10 5 -10 10 0 6 5 10 10 10 6 0 10 -4 10 -10z
m-11982 -259 c4 -36 2 -36 47 -14 30 14 38 15 60 3 14 -8 35 -31 47 -51 17
-31 24 -36 39 -29 28 15 36 12 73 -24 45 -43 67 -118 42 -145 -9 -9 -16 -22
-16 -28 0 -6 -11 -13 -25 -15 -21 -4 -26 -1 -32 21 -8 34 -40 85 -46 74 -2 -4
-7 -20 -11 -35 -5 -24 -12 -28 -40 -28 -20 0 -42 8 -57 23 -16 14 -34 21 -52
19 -35 -4 -77 22 -77 48 0 10 -4 21 -8 24 -10 6 -75 -15 -95 -32 -8 -7 -22
-10 -31 -6 -21 8 -21 -23 1 -93 15 -47 15 -56 2 -83 l-14 -29 -40 48 c-70 85
-184 145 -299 158 -28 3 -57 9 -65 13 -19 10 82 47 184 68 44 8 83 20 87 26 4
6 8 31 9 56 l1 45 14 -32 c8 -18 20 -33 27 -33 14 0 67 26 131 65 31 18 51 23
90 20 49 -3 51 -5 54 -34z m6776 27 c5 -10 7 -10 12 0 11 23 25 12 20 -15 -2
-16 -5 -56 -5 -90 -1 -40 -5 -62 -12 -60 -6 1 -16 -5 -22 -14 -8 -13 -7 -21 6
-34 9 -9 17 -25 17 -35 0 -10 5 -20 11 -22 6 -2 13 -27 15 -55 3 -34 13 -65
29 -89 14 -20 25 -41 25 -45 0 -5 8 -9 19 -9 14 0 21 -10 26 -36 6 -34 35 -79
35 -55 0 19 18 12 25 -9 3 -11 13 -20 20 -20 49 0 13 -63 -44 -77 -22 -6 -40
-8 -39 -4 2 23 -4 32 -19 27 -10 -3 -25 -1 -33 4 -12 8 -10 10 8 10 13 0 20 4
17 10 -3 6 -17 10 -31 10 -13 0 -24 5 -24 11 0 15 -39 49 -57 49 -7 0 -29 16
-49 35 -19 19 -44 35 -54 35 -11 0 -20 7 -20 15 0 8 -9 15 -20 15 -17 0 -20 7
-20 40 0 22 5 40 10 40 6 0 10 37 10 90 0 50 4 90 9 90 5 0 13 9 16 20 3 11
13 20 21 20 9 0 14 11 14 34 0 18 7 39 15 46 17 14 20 35 4 24 -7 -4 -10 -1
-7 7 3 8 11 13 17 11 15 -3 42 23 34 32 -4 3 -1 6 5 6 5 0 13 -6 16 -12z m-94
-103 c0 -14 -4 -25 -10 -25 -11 0 -14 33 -3 43 11 11 13 8 13 -18z m-2405 -85
c12 -10 164 -16 323 -13 l112 2 0 -24 c0 -13 -4 -57 -10 -97 -5 -40 -19 -145
-31 -233 -26 -195 -75 -454 -90 -472 -16 -18 -89 -16 -314 7 -104 11 -238 20
-297 20 -60 0 -110 4 -113 10 -4 6 6 10 22 10 15 0 40 6 55 14 48 25 85 29 96
10 9 -17 11 -17 27 -1 9 9 21 17 26 17 19 0 88 78 94 106 4 16 12 47 19 69 56
171 73 419 38 532 l-19 60 26 -5 c14 -3 31 -8 36 -12z m2202 -12 c-3 -7 -5 -2
-5 12 0 14 2 19 5 13 2 -7 2 -19 0 -25z m-1580 -20 c-3 -8 -6 -5 -6 6 -1 11 2
17 5 13 3 -3 4 -12 1 -19z m-5408 -48 c169 -47 251 -122 251 -228 0 -28 -3
-33 -12 -24 -7 7 -18 12 -26 12 -7 0 -20 6 -27 14 -12 11 -22 11 -66 0 -29 -8
-63 -24 -76 -36 -20 -19 -25 -20 -33 -8 -5 8 -10 24 -10 34 0 36 -41 105 -82
141 -23 19 -72 46 -110 61 -38 14 -66 29 -63 33 6 6 88 16 150 20 17 0 63 -8
104 -19z m902 -12 c31 -10 91 -51 193 -132 58 -46 134 -159 142 -212 3 -24 1
-74 -5 -111 -13 -77 -49 -193 -60 -193 -4 0 -13 28 -20 62 -15 73 -30 104 -84
176 -50 66 -87 90 -87 56 0 -28 -24 -8 -33 27 -16 67 -31 114 -38 124 -3 6 -9
33 -11 60 -3 31 -15 66 -31 92 -41 65 -35 75 34 51z m7515 -30 c54 -36 65 -65
24 -59 -13 1 -33 9 -44 17 -38 26 -36 14 8 -43 23 -32 49 -70 57 -84 8 -15 43
-76 79 -135 74 -125 144 -277 205 -449 23 -66 57 -155 74 -198 45 -113 89
-287 73 -287 -8 0 -40 21 -105 67 -93 67 -293 123 -437 123 -70 0 -207 -26
-290 -54 -112 -38 -149 -52 -156 -59 -4 -4 -18 -7 -30 -7 -13 0 -26 -4 -29
-10 -3 -5 -12 -10 -19 -10 -23 0 -96 79 -103 110 -4 21 -11 30 -26 30 -11 0
-40 20 -64 44 -40 40 -45 51 -54 113 -5 37 -9 88 -8 113 1 46 18 121 29 130 3
3 16 21 27 40 42 68 218 220 256 220 7 0 32 11 57 25 25 14 68 36 96 49 29 14
67 38 86 55 32 28 35 34 36 98 2 64 4 70 37 100 19 18 55 41 79 51 24 11 47
25 50 31 12 19 42 12 92 -21z m-8647 -4 c75 -19 121 -49 157 -104 47 -71 29
-190 -41 -265 -26 -28 -29 -28 -35 -10 -4 11 -4 30 1 42 7 18 1 33 -22 68 -37
55 -71 79 -98 70 -11 -3 -30 -1 -42 6 -12 6 -55 11 -95 11 -64 -1 -74 1 -79
19 -11 34 80 149 119 149 8 0 19 7 26 15 16 19 28 19 109 -1z m-109 -279 c0
-3 -49 -29 -109 -59 -107 -52 -238 -133 -274 -169 -10 -10 -41 -33 -70 -51
-69 -44 -117 -90 -117 -111 0 -19 -3 -27 -84 -201 -31 -67 -56 -125 -56 -128
0 -4 -25 -58 -55 -120 -30 -63 -67 -152 -81 -198 -14 -46 -34 -105 -43 -133
-28 -78 -61 -189 -61 -203 0 -7 -18 -46 -40 -87 -21 -41 -36 -75 -33 -75 4 0
-3 -9 -15 -20 -12 -12 -22 -28 -22 -37 0 -9 -8 -25 -17 -36 -10 -10 -23 -51
-30 -90 -7 -40 -17 -99 -23 -132 -7 -34 -9 -97 -6 -145 9 -135 6 -808 -4 -995
-9 -161 -23 -292 -33 -302 -14 -13 -20 147 -22 617 -2 289 -6 546 -10 572 -10
66 9 214 60 474 55 276 72 343 136 529 56 167 208 486 289 608 61 93 106 140
189 196 33 23 105 76 158 119 147 115 198 148 273 175 19 7 100 9 100 2z m-20
-99 c0 -2 -12 -11 -27 -20 l-28 -17 24 20 c23 21 31 25 31 17z m170 -36 c0 -5
-7 -10 -16 -10 -8 0 -12 5 -9 10 3 6 10 10 16 10 5 0 9 -4 9 -10z m-50 -20 c0
-5 -4 -10 -10 -10 -5 0 -10 5 -10 10 0 6 5 10 10 10 6 0 10 -4 10 -10z m-255
-39 c-67 -62 -218 -181 -223 -176 -8 8 64 75 157 146 62 48 105 68 66 30z
m123 -33 c-198 -156 -378 -373 -484 -584 -21 -43 -47 -87 -57 -97 -12 -12 -17
-27 -13 -40 3 -13 -13 -76 -38 -152 -69 -205 -91 -285 -139 -510 -56 -260 -54
-249 -72 -430 -15 -154 -20 -331 -9 -359 3 -9 15 -16 26 -16 11 0 31 -9 45
-20 14 -11 35 -20 47 -20 11 0 32 -9 46 -20 14 -11 34 -20 45 -20 12 0 26 -5
31 -10 6 -6 24 -12 42 -14 17 -3 46 -12 66 -21 41 -20 58 -13 50 21 -7 29 11
33 25 5 14 -24 72 -58 108 -63 29 -3 30 -2 19 47 l-7 30 25 -36 c14 -20 39
-42 56 -47 16 -6 30 -16 30 -21 0 -6 7 -11 16 -11 14 0 16 8 10 52 -6 46 -5
50 8 38 9 -7 16 -19 16 -26 0 -17 46 -48 58 -40 6 3 8 22 5 41 -6 43 10 46 27
4 12 -28 14 -29 23 -12 15 27 15 27 31 14 8 -7 25 -11 38 -9 18 2 26 -4 37
-29 19 -42 41 -43 41 -3 0 30 0 30 28 16 15 -8 37 -24 50 -36 12 -12 33 -23
45 -25 12 -3 35 -10 50 -16 15 -7 30 -10 32 -7 3 3 -2 25 -10 49 -28 78 -31
147 -5 87 6 -13 36 -59 68 -103 57 -79 59 -80 109 -86 28 -4 56 -10 62 -13 21
-14 55 -15 62 -4 6 9 13 8 27 -5 10 -9 26 -17 36 -17 9 0 27 -5 39 -12 32 -17
87 -27 87 -16 0 5 -18 63 -40 129 -22 66 -40 132 -39 147 0 18 5 11 13 -23 7
-27 30 -81 51 -120 58 -105 185 -218 213 -190 4 3 -8 48 -27 98 -18 51 -35
101 -38 112 -8 31 64 -72 91 -130 13 -27 32 -61 43 -74 25 -31 47 -20 38 20
-8 34 4 37 30 9 10 -11 23 -20 28 -20 5 0 29 -16 53 -35 23 -19 47 -35 53 -35
6 0 11 20 11 48 l1 47 34 -39 c58 -65 93 -86 134 -80 30 5 43 0 82 -29 66 -51
84 -51 85 -4 1 20 -5 60 -12 89 -19 72 -17 90 5 48 11 -19 17 -38 15 -42 -10
-16 39 -142 64 -164 33 -28 40 -29 65 -7 18 17 20 17 40 -8 22 -26 76 -59 97
-59 6 0 16 11 22 25 l11 25 24 -35 c13 -19 40 -42 60 -50 33 -14 38 -14 55 1
10 10 18 31 18 51 0 38 8 41 44 12 19 -15 26 -30 26 -53 0 -32 2 -34 66 -55
85 -28 98 -20 88 56 -11 91 15 65 57 -56 21 -59 46 -86 66 -69 7 6 13 16 13
24 0 27 24 64 42 64 21 0 38 -36 38 -82 0 -71 75 -93 121 -37 l26 32 46 -58
c26 -31 51 -64 56 -73 8 -14 13 -15 30 -4 26 15 58 16 67 0 5 -8 11 -6 20 7
12 17 14 16 24 -9 5 -15 10 -47 10 -70 0 -47 19 -72 47 -62 11 5 28 -5 52 -27
42 -40 75 -51 92 -31 10 13 18 9 51 -23 l38 -37 0 66 c0 70 15 99 26 51 14
-64 27 -94 46 -108 27 -18 34 -13 42 26 6 31 7 32 26 14 13 -12 20 -31 20 -56
0 -21 5 -41 10 -44 6 -3 10 3 10 15 0 11 7 23 16 27 8 3 13 11 10 18 -2 7 -2
16 1 19 7 6 19 -13 53 -82 25 -51 145 -172 170 -172 10 0 25 11 33 24 22 33
62 39 76 12 11 -21 11 -20 7 2 -2 13 -1 36 4 52 10 34 -8 341 -21 354 -6 6 -9
6 -9 -2 0 -15 -36 -16 -46 -1 -3 6 6 23 20 38 14 15 26 30 26 34 0 14 -24 7
-46 -14 -27 -25 -48 -16 -40 16 8 29 -2 55 -20 55 -30 0 -15 53 28 97 l42 43
-22 27 c-106 133 -117 174 -108 388 17 398 33 478 105 549 l40 39 53 -40 c29
-22 86 -63 125 -92 74 -54 167 -148 241 -244 39 -51 61 -86 113 -182 12 -22
27 -47 34 -55 26 -30 75 -135 75 -161 0 -24 -6 -20 -82 52 -84 80 -118 97
-118 59 0 -11 6 -20 14 -20 15 0 19 -10 31 -67 5 -27 2 -37 -24 -62 -17 -17
-31 -34 -31 -39 0 -4 -16 -14 -35 -22 -22 -9 -35 -20 -35 -32 0 -10 -7 -18
-15 -18 -12 0 -15 -14 -16 -62 -1 -35 -4 -53 -6 -40 -7 36 -27 25 -43 -26
l-16 -47 -49 -3 c-71 -4 -81 -8 -64 -28 7 -9 40 -34 74 -56 64 -43 65 -42 -35
-22 -28 6 -120 -19 -120 -32 0 -8 44 -68 100 -135 30 -36 68 -87 83 -114 15
-26 31 -45 34 -42 7 8 26 -12 43 -43 9 -17 10 -25 1 -28 -16 -5 -14 -49 5 -78
14 -20 15 -32 6 -67 -22 -84 -25 -125 -23 -265 2 -117 0 -147 -13 -167 -9 -14
-23 -25 -31 -25 -30 0 -155 -44 -155 -55 0 -15 37 -49 74 -67 20 -11 30 -24
32 -44 2 -16 8 -30 14 -32 22 -8 8 -40 -32 -78 -30 -28 -64 -46 -113 -62 -39
-12 -76 -22 -83 -22 -14 0 -63 -29 -73 -43 -3 -5 -17 -7 -30 -5 -19 2 -26 -4
-39 -39 -9 -24 -21 -48 -27 -54 -18 -18 -48 6 -73 57 -35 75 -27 202 17 288
41 80 151 163 248 187 50 13 50 13 20 21 -17 5 -57 7 -90 4 -58 -5 -63 -4
-155 50 -52 30 -116 64 -142 75 -56 25 -63 40 -37 71 l21 23 -31 26 c-17 14
-51 35 -75 47 -24 12 -50 29 -56 38 -7 8 -59 37 -116 65 -56 27 -113 58 -126
67 -12 10 -51 30 -84 45 -34 15 -88 43 -120 62 -32 19 -65 35 -74 35 -32 0
-156 48 -204 79 -37 23 -62 31 -96 31 -25 0 -61 8 -80 18 -50 27 -159 54 -200
50 l-35 -3 27 -15 c58 -33 168 -111 168 -120 0 -13 -47 -3 -150 30 -150 49
-252 77 -393 110 -76 17 -172 43 -213 56 -41 13 -102 28 -135 34 -34 6 -69 15
-78 20 -23 12 -117 40 -135 40 -8 0 -51 12 -95 26 -61 20 -81 30 -81 44 0 26
48 32 180 20 179 -16 247 -20 228 -14 -10 3 -18 10 -18 15 0 5 -8 9 -18 9 -17
0 -87 30 -154 66 -14 8 -34 14 -43 14 -9 0 -58 22 -108 49 -90 48 -261 121
-364 155 -29 10 -69 26 -90 37 -20 10 -43 19 -51 19 -8 0 -26 8 -40 18 -15 10
-61 33 -102 52 -41 18 -98 46 -127 62 -49 27 -56 28 -133 22 l-82 -7 6 -31
c10 -51 42 -77 201 -169 16 -9 36 -24 42 -34 11 -14 8 -18 -15 -31 -41 -21
-229 -1 -278 30 -10 7 -57 20 -134 37 -19 5 -58 20 -86 35 -29 14 -59 26 -67
26 -8 0 -20 7 -27 15 -7 8 -20 15 -30 15 -9 0 -20 3 -24 7 -4 4 -25 8 -47 9
-22 1 -48 9 -58 18 -10 9 -22 16 -27 16 -11 0 -54 46 -54 58 -1 25 -17 32 -45
18 -27 -14 -30 -14 -50 8 -14 15 -38 25 -70 29 -56 8 -68 16 -97 69 -22 38
-23 39 -29 16 -4 -12 -8 -246 -8 -518 -1 -301 -5 -501 -11 -510 -7 -11 -10 -7
-10 17 0 17 -4 43 -10 58 -20 51 -29 259 -35 765 -3 311 -2 565 4 640 11 136
36 322 53 385 5 22 11 51 13 65 8 53 36 178 54 240 10 36 29 112 41 170 52
246 108 389 216 550 31 47 75 108 98 135 23 28 59 74 81 103 21 28 43 52 47
52 4 0 8 5 8 11 0 13 74 102 124 148 45 42 165 121 184 121 8 0 -10 -19 -40
-42z m9067 -718 c39 -13 82 -32 97 -42 21 -14 37 -17 63 -12 31 5 41 2 66 -22
16 -15 29 -36 29 -47 0 -17 -5 -18 -35 -13 -43 8 -44 -2 -10 -63 14 -23 25
-51 25 -62 0 -10 14 -34 30 -52 35 -41 36 -48 10 -67 -23 -16 -25 -52 -10
-145 5 -33 14 -106 20 -163 6 -56 20 -132 31 -168 21 -66 19 -144 -3 -144 -5
0 -26 16 -46 36 -20 19 -57 47 -82 61 -25 14 -72 43 -105 63 -70 42 -162 77
-228 86 -37 5 -47 11 -47 25 0 12 -7 19 -20 19 -15 0 -20 7 -20 25 0 18 -5 25
-20 25 -16 0 -20 7 -20 35 0 28 -4 35 -20 35 -11 0 -20 7 -20 15 0 10 -10 15
-30 15 -16 0 -30 5 -30 10 0 6 -9 10 -20 10 -11 0 -20 4 -20 9 0 5 -15 12 -32
16 -30 8 -40 9 -75 14 -7 0 -13 8 -13 16 0 8 -4 15 -10 15 -5 0 -10 9 -10 20
0 13 -7 20 -20 20 -18 0 -20 7 -20 80 0 73 2 80 20 80 23 0 27 25 6 33 -23 9
-25 53 -3 66 14 9 18 21 15 41 -4 27 -2 29 36 36 25 4 50 17 67 35 15 16 30
29 35 29 4 0 15 7 24 15 51 47 276 55 395 15z m-4323 -40 c2 -6 17 -13 33 -15
17 -3 39 -7 51 -10 11 -2 83 -7 159 -10 76 -3 141 -7 144 -9 3 -2 60 -12 126
-21 66 -9 140 -22 165 -30 57 -16 52 -15 105 -15 42 0 45 -2 40 -22 -2 -13
-29 -124 -59 -248 -30 -124 -67 -290 -82 -369 l-27 -143 -41 6 c-23 3 -72 10
-109 16 -82 12 -468 40 -552 40 -38 0 -76 -8 -104 -20 -24 -11 -55 -20 -68
-20 -26 0 -26 0 -19 65 4 36 27 134 51 217 55 184 110 407 125 503 19 118 18
117 39 105 11 -5 21 -14 23 -20z m6191 18 c4 -10 8 -9 17 2 9 11 13 12 17 3 2
-7 14 -13 25 -13 23 0 48 -22 48 -44 0 -8 9 -18 20 -21 11 -3 20 -11 20 -16 0
-14 19 -31 53 -48 15 -8 37 -33 48 -55 27 -53 40 -71 62 -79 9 -3 17 -13 17
-22 0 -8 7 -15 15 -15 9 0 18 -7 22 -16 3 -8 16 -20 29 -25 18 -6 24 -16 24
-37 0 -16 9 -37 20 -47 11 -10 20 -13 20 -7 0 7 5 12 10 12 6 0 10 -7 10 -15
0 -15 24 -59 45 -81 5 -6 23 -31 39 -56 16 -25 40 -51 53 -57 14 -7 21 -16 17
-23 -4 -6 -3 -8 4 -4 14 8 25 -10 29 -48 4 -33 28 -76 43 -76 6 0 10 -7 10
-15 0 -15 6 -25 38 -60 6 -7 12 -19 12 -25 0 -6 7 -18 15 -27 9 -8 18 -28 22
-43 3 -16 13 -30 24 -33 29 -8 23 -34 -10 -40 -35 -7 -102 24 -113 53 -4 12
-20 28 -35 37 -16 8 -43 35 -61 58 -17 23 -86 96 -152 163 -66 67 -120 128
-120 135 0 7 -25 37 -56 67 -31 30 -67 73 -81 95 -14 22 -37 52 -51 68 -14 15
-20 27 -13 27 7 0 -4 20 -23 44 -20 23 -36 47 -36 51 0 4 -9 16 -21 26 -11 9
-21 29 -23 43 -1 13 -8 31 -14 39 -7 8 -10 29 -7 48 3 19 3 29 -1 22 -11 -23
-34 -1 -34 33 0 34 14 46 23 22z m-7639 -110 c-5 -16 -105 -83 -194 -131 -100
-55 -203 -93 -366 -135 -232 -61 -237 -62 -251 -50 -22 18 -15 38 15 38 15 0
52 7 82 16 30 9 73 19 95 24 96 21 330 108 450 167 72 35 134 69 140 74 13 13
35 11 29 -3z m-1779 -194 c70 -34 94 -38 325 -64 47 -5 128 -15 181 -21 53 -7
119 -10 147 -7 42 4 55 1 68 -14 10 -10 14 -21 10 -25 -11 -12 -209 -2 -236
12 -14 7 -64 15 -111 17 -47 3 -97 11 -110 18 -13 7 -46 15 -74 17 -102 7
-315 78 -315 105 0 13 32 2 115 -38z m6875 -44 c0 -18 -7 -20 -64 -20 -73 0
-96 6 -96 26 0 11 18 14 80 14 73 0 80 -2 80 -20z m-563 -15 c28 -20 57 -98
85 -232 19 -89 23 -140 23 -289 0 -142 -3 -185 -14 -198 -13 -16 -15 -16 -23
-1 -12 21 -28 10 -28 -19 0 -31 -60 -72 -141 -96 -77 -24 -93 -25 -109 -5 -11
13 -10 18 6 30 10 8 26 15 35 15 8 0 36 14 62 31 46 30 46 31 40 77 -3 26 -12
61 -19 77 -8 17 -13 46 -12 65 0 19 -6 51 -15 71 -13 31 -20 37 -58 43 -61 9
-110 26 -104 35 2 5 32 11 66 14 34 3 65 9 70 14 11 11 23 73 44 238 9 66 18
126 20 133 6 17 46 15 72 -3z m-5386 -68 c-8 -8 -11 -7 -11 4 0 9 3 19 7 23 4
4 9 2 11 -4 3 -7 -1 -17 -7 -23z m1218 -361 c-11 -24 -29 -36 -29 -18 0 12 31
54 36 49 3 -2 -1 -16 -7 -31z m122 -86 c25 -14 24 -21 -7 -102 l-26 -68 -29
21 c-36 25 -36 45 -4 109 26 52 34 57 66 40z m5532 -305 c15 -290 -3 -392 -86
-482 -46 -49 -57 -49 -33 1 9 19 16 45 16 58 0 28 -55 124 -109 188 -20 25
-40 50 -43 55 -9 15 18 185 36 229 8 20 20 36 25 36 6 0 11 13 11 29 0 37 8
40 100 38 l75 -2 8 -150z m-11912 -2 c24 -32 52 -67 62 -78 10 -11 25 -33 34
-50 11 -23 4 -19 -30 20 -41 45 -123 165 -113 165 2 0 23 -26 47 -57z m6339
47 c0 -5 -4 -10 -10 -10 -5 0 -10 5 -10 10 0 6 5 10 10 10 6 0 10 -4 10 -10z
m-6140 -165 c0 -8 4 -15 9 -15 5 0 12 -7 15 -16 12 -32 -1 -23 -34 22 -27 38
-29 44 -11 35 11 -7 21 -18 21 -26z m10199 -71 c13 -17 21 -41 21 -66 0 -22 5
-48 11 -59 22 -42 55 -400 69 -764 6 -137 17 -333 26 -435 21 -260 6 -583 -31
-661 -17 -36 -66 -74 -109 -85 -32 -8 -94 12 -124 40 -38 34 -173 270 -241
421 -86 191 -145 298 -192 347 -43 45 -43 61 -1 36 49 -29 101 -110 205 -318
118 -236 255 -480 269 -480 6 0 6 13 1 33 -4 17 -7 75 -5 127 9 320 8 343 -14
385 -22 43 -48 152 -59 250 -4 33 -13 89 -21 125 -10 45 -14 145 -15 330 -2
295 -10 478 -22 498 -5 8 -2 22 7 37 9 13 16 34 16 45 0 24 41 93 68 112 10 7
31 31 47 53 48 65 62 69 94 29z m-9941 -19 c-3 -3 -9 2 -12 12 -6 14 -5 15 5
6 7 -7 10 -15 7 -18z m447 -85 c3 -5 24 -14 46 -20 52 -14 109 -64 92 -81 -9
-9 -21 -7 -55 11 -43 22 -108 77 -108 92 0 11 18 10 25 -2z m264 -101 c-24
-46 -68 -7 -54 48 l6 26 29 -28 c23 -22 27 -32 19 -46z m151 32 c0 -11 -4 -23
-10 -26 -6 -4 -10 5 -10 19 0 14 5 26 10 26 6 0 10 -9 10 -19z m10388 -153
c23 -23 12 -48 -40 -87 -58 -43 -135 -84 -148 -79 -5 2 20 27 56 56 35 29 64
56 64 61 0 48 40 77 68 49z m-2532 -97 c-3 -5 -32 -19 -63 -32 -32 -12 -75
-33 -95 -46 -21 -13 -40 -23 -44 -23 -8 0 -245 -139 -264 -155 -31 -26 -233
-145 -256 -151 -23 -6 -24 -4 -24 37 0 34 8 53 33 85 43 54 119 122 189 167
31 21 60 42 63 47 3 6 19 10 34 10 16 0 34 7 41 15 12 15 65 20 93 9 19 -7 10
-44 -12 -45 -11 0 -12 -2 -3 -6 8 -3 24 -1 35 5 12 5 42 17 67 27 25 10 54 22
65 27 61 27 151 47 141 29z m-4631 -221 c7 -22 6 -23 -9 -11 -9 7 -16 23 -16
34 0 26 15 12 25 -23z m-1448 14 c2 -6 -23 -53 -55 -105 -33 -52 -108 -173
-167 -269 -59 -96 -118 -191 -130 -210 -32 -50 -111 -192 -118 -213 -4 -11
-12 -15 -18 -11 -7 4 -9 3 -6 -4 9 -13 -2 -42 -15 -42 -20 0 6 69 84 225 111
222 270 481 378 618 22 27 40 31 47 11z m-113 -63 c11 -16 -55 -71 -128 -108
-75 -38 -147 -84 -259 -166 -37 -27 -70 -47 -73 -45 -7 8 142 123 276 212 69
46 131 91 139 100 15 18 37 21 45 7z m5281 -185 c17 -58 19 -202 5 -296 -16
-101 -16 -100 -64 -100 -64 0 -67 11 -40 118 31 123 54 255 54 317 1 47 2 49
16 30 8 -11 21 -42 29 -69z m-5534 -85 c-23 -23 -31 -26 -31 -11 0 14 44 52
48 41 2 -5 -6 -19 -17 -30z m3509 -155 c0 -16 -18 -31 -27 -22 -8 8 5 36 17
36 5 0 10 -6 10 -14z m42 -78 c-29 -47 -72 -86 -72 -66 0 17 80 112 88 104 2
-3 -5 -20 -16 -38z m-4884 -4 c12 -8 22 -19 22 -24 0 -11 -43 9 -75 35 -20 16
-19 16 5 9 14 -3 35 -12 48 -20z m-744 -114 l19 -32 -21 11 c-20 10 -42 40
-42 56 0 16 27 -5 44 -35z m1269 -16 c61 -47 61 -64 2 -64 -51 0 -85 25 -85
63 0 49 22 49 83 1z m3149 7 c7 -10 31 -27 52 -37 74 -36 33 -58 -53 -29 -61
20 -89 48 -71 70 17 21 56 19 72 -4z m1193 -66 c0 -28 -29 -25 -33 3 -3 19 0
23 15 20 10 -2 18 -12 18 -23z m1965 -64 c5 -11 10 -30 10 -42 0 -12 6 -38 13
-57 9 -28 9 -36 0 -39 -7 -3 -22 -21 -34 -40 l-23 -36 22 -15 c26 -17 30 -63
7 -82 -8 -7 -15 -20 -15 -30 0 -18 34 -58 66 -76 18 -11 17 -13 -13 -30 -28
-16 -33 -25 -33 -57 0 -30 5 -40 25 -49 30 -13 33 -28 6 -28 -28 0 -32 -12
-14 -48 12 -25 13 -36 4 -45 -7 -7 -11 -53 -11 -126 0 -147 -20 -280 -54 -355
-26 -58 -26 -59 -47 -41 -13 13 -32 18 -60 17 l-40 -3 1 463 c2 530 7 578 67
643 10 11 31 37 46 58 31 41 61 48 77 18z m-6056 -43 c-4 -13 -12 -31 -19 -41
-11 -16 -12 -15 -12 10 0 15 7 33 16 40 22 17 23 16 15 -9z m1772 -67 c50 -10
110 -28 135 -40 l44 -21 -35 4 c-19 2 -71 12 -115 22 -60 13 -126 18 -265 18
-166 1 -194 -2 -270 -23 -117 -33 -274 -103 -394 -176 -56 -33 -119 -69 -141
-79 -22 -10 -44 -21 -50 -24 -5 -3 -4 2 4 11 21 26 139 101 253 160 118 62
292 129 394 150 103 23 327 21 440 -2z m1832 -237 c151 -44 289 -108 334 -156
15 -17 28 -34 28 -39 0 -16 -41 -10 -68 10 -39 27 -141 76 -187 90 -22 7 -49
16 -60 21 -11 5 -54 17 -95 26 -80 19 -160 50 -160 63 0 28 77 22 208 -15z
m-853 -160 c137 -30 288 -68 380 -94 74 -21 285 -122 267 -128 -6 -2 -28 5
-49 16 -102 50 -357 120 -632 173 -71 14 -161 48 -161 61 0 12 39 6 195 -28z
m-1295 -12 c0 -6 -214 -67 -280 -79 -24 -4 -24 -4 -5 8 48 30 193 78 238 79
26 0 47 -3 47 -8z m4854 -158 c9 -23 8 -24 -19 -24 -27 0 -32 9 -13 28 16 16
25 15 32 -4z m1455 -745 c168 -27 296 -121 374 -274 79 -156 52 -274 -72 -319
l-51 -18 -19 23 c-10 13 -19 28 -19 33 -1 15 -25 26 -57 26 -25 0 -36 9 -64
50 -18 27 -53 67 -77 89 -24 22 -55 57 -69 78 -15 21 -45 58 -67 83 -23 24
-47 59 -54 77 -8 17 -18 34 -24 38 -24 15 8 110 39 118 30 8 96 7 160 -4z
m1776 -99 c3 -5 -3 -10 -14 -10 -12 0 -21 5 -21 10 0 6 6 10 14 10 8 0 18 -4
21 -10z m1007 -417 c19 -17 24 -43 9 -43 -6 0 -17 10 -25 22 -27 38 -17 51 16
21z m-1742 -393 c82 -14 155 -49 205 -99 71 -71 123 -198 78 -189 -10 2 -23
14 -30 28 -7 14 -34 50 -60 82 -45 52 -70 71 -133 96 -33 13 -238 52 -275 52
-51 0 -215 33 -215 43 0 13 337 2 430 -13z m2500 0 c0 -19 -11 -26 -23 -14 -8
8 3 34 14 34 5 0 9 -9 9 -20z m-3084 -154 c99 -33 210 -99 230 -137 14 -28 14
-33 0 -54 -14 -22 -19 -23 -48 -13 -18 7 -74 33 -124 59 -79 41 -147 66 -333
121 -25 7 -46 18 -48 25 -6 16 24 20 147 21 86 1 118 -3 176 -22z m-2491 -117
c22 -11 31 -16 20 -13 -11 4 -42 10 -69 13 -27 3 -51 12 -54 18 -5 17 49 7
103 -18z m1685 -5 c134 -15 298 -65 412 -126 56 -30 128 -106 128 -135 0 -17
-83 25 -123 62 -60 57 -324 151 -540 192 -15 3 -30 9 -33 14 -5 8 36 7 156 -7z
m3573 -25 c62 -11 148 -32 192 -45 89 -28 239 -110 285 -156 30 -29 56 -68 46
-68 -3 0 -37 21 -77 46 -87 56 -210 114 -304 142 -214 65 -276 85 -281 93 -8
13 15 11 139 -12z m-5135 -19 c29 -11 65 -28 80 -37 36 -22 122 -105 122 -117
0 -5 -15 4 -32 21 -18 17 -76 57 -128 88 -126 76 -127 77 -42 45z m3032 -72
c144 -38 186 -46 280 -57 61 -7 78 -6 92 7 14 11 35 13 100 9 105 -6 183 -30
221 -69 40 -40 105 -80 118 -73 5 4 7 9 5 13 -2 4 12 8 33 9 40 3 105 -23 96
-37 -3 -6 1 -7 9 -4 8 3 25 -4 38 -15 16 -16 34 -21 63 -20 41 2 151 -43 350
-145 49 -25 93 -46 97 -46 8 0 248 -117 256 -124 2 -3 1 -10 -3 -16 -5 -8 -11
-8 -21 1 -8 6 -35 15 -60 20 -25 5 -60 16 -78 24 -17 8 -43 17 -56 20 -14 3
-46 10 -72 17 -34 8 -53 9 -70 1 -21 -10 -20 -12 20 -18 26 -5 47 -15 53 -26
5 -11 18 -19 29 -19 10 0 25 -6 32 -13 7 -8 25 -17 40 -20 15 -4 33 -14 42
-22 8 -8 17 -15 21 -15 3 0 58 -23 123 -51 64 -28 140 -61 167 -73 76 -32 158
-80 146 -84 -5 -2 -50 13 -98 33 -48 20 -128 51 -178 69 -49 19 -126 48 -170
66 -110 45 -112 46 -185 65 -36 9 -83 23 -105 30 -22 7 -64 15 -92 18 -46 4
-53 2 -53 -14 0 -17 -6 -15 -52 12 -76 44 -74 43 -183 100 -55 29 -117 63
-137 76 -21 12 -42 23 -48 23 -5 0 -22 19 -36 42 -15 23 -36 50 -48 60 -29 24
-153 88 -171 88 -19 0 -19 -9 0 -53 20 -47 19 -57 -3 -30 -36 46 -150 113
-259 153 -78 28 -98 22 -44 -13 60 -40 121 -97 121 -113 0 -18 -2 -18 -47 6
-42 21 -119 39 -93 21 8 -5 11 -13 7 -17 -4 -4 -30 8 -59 26 -29 19 -89 53
-133 77 -44 24 -87 47 -95 52 -8 5 -35 17 -60 27 -25 10 -63 29 -85 42 l-40
23 80 -6 c44 -4 132 -20 195 -37z m-1660 -114 c75 -25 122 -63 204 -161 34
-41 -1 -24 -61 28 -68 60 -199 139 -230 139 -12 0 -25 5 -29 11 -8 14 47 6
116 -17z m4615 -93 c3 -5 1 -12 -5 -16 -5 -3 -10 1 -10 9 0 18 6 21 15 7z
m-3165 -124 c83 -31 233 -187 179 -187 -6 0 -36 22 -66 49 -58 52 -159 111
-188 111 -10 0 -45 10 -79 22 l-61 23 35 6 c50 8 116 -1 180 -24z m4140 -42
c0 -7 -7 -16 -15 -19 -20 -7 -33 23 -14 34 16 10 29 4 29 -15z m-6663 -21 c-3
-3 -12 -4 -19 -1 -8 3 -5 6 6 6 11 1 17 -2 13 -5z m178 -54 c45 -22 95 -55
115 -77 19 -20 26 -30 14 -20 -11 9 -25 17 -31 17 -6 0 -13 6 -16 13 -7 17
-117 76 -186 98 -50 17 -52 18 -16 14 22 -3 76 -23 120 -45z m1920 22 c96 -11
149 -42 193 -114 32 -52 12 -55 -48 -6 -71 58 -108 79 -115 68 -10 -16 -38
-12 -135 20 -132 43 -142 53 -45 45 44 -3 112 -9 150 -13z m-559 -23 c17 -5
42 -21 54 -34 l23 -25 -25 0 c-31 0 -161 54 -152 63 9 9 65 7 100 -4z m4409
-79 c139 -20 284 -79 346 -141 36 -36 89 -125 89 -150 0 -6 -30 20 -67 57 -38
38 -90 81 -118 96 -65 34 -242 93 -325 108 -105 18 -110 20 -110 30 0 13 95
12 185 0z m-2499 -160 c195 -49 340 -126 369 -197 20 -47 19 -51 -4 -26 -19
20 -159 92 -211 108 -14 4 -34 14 -45 21 -11 8 -31 14 -45 14 -14 0 -47 12
-75 25 -27 14 -56 25 -63 25 -26 0 -182 55 -182 63 0 15 137 -3 256 -33z
m-4167 -117 c0 -81 -4 -121 -9 -108 -14 33 -9 235 6 235 2 0 4 -57 3 -127z"/>
<path d="M9547 13229 c7 -7 15 -10 18 -7 3 3 -2 9 -12 12 -14 6 -15 5 -6 -5z"/>
<path d="M9580 13216 c0 -3 28 -19 63 -36 34 -18 69 -38 77 -44 8 -7 42 -28
75 -46 102 -57 323 -232 387 -305 10 -11 17 -15 18 -9 0 13 -207 214 -220 214
-5 0 -26 16 -47 35 -21 19 -46 35 -56 35 -10 0 -20 7 -23 15 -3 8 -16 17 -27
21 -12 3 -49 23 -82 43 -101 63 -165 92 -165 77z"/>
<path d="M10793 13138 c-42 -30 -73 -102 -73 -170 0 -98 77 -178 172 -178 41
0 88 21 88 40 0 5 -31 6 -69 3 -61 -5 -73 -3 -101 17 -36 26 -69 90 -70 135 0
47 34 124 66 150 37 31 29 32 -13 3z"/>
<path d="M10144 13082 c4 -7 11 -12 16 -12 6 0 47 -29 92 -64 97 -75 220 -200
300 -306 66 -88 95 -120 108 -120 16 0 11 15 -12 38 -29 26 -42 42 -74 89 -78
115 -204 240 -322 319 -90 59 -120 75 -108 56z"/>
<path d="M7216 12770 c-46 -55 -134 -194 -175 -277 -47 -93 -101 -248 -101
-287 0 -22 4 -26 29 -26 28 0 29 3 40 64 13 75 59 192 111 285 20 36 52 93 70
126 18 33 44 79 57 103 20 33 22 42 10 42 -8 0 -27 -14 -41 -30z"/>
<path d="M10225 12750 c3 -5 8 -10 11 -10 2 0 4 5 4 10 0 6 -5 10 -11 10 -5 0
-7 -4 -4 -10z"/>
<path d="M10610 12496 c0 -2 11 -26 24 -53 40 -81 82 -183 116 -283 35 -103
54 -137 39 -71 -25 111 -140 388 -168 405 -6 4 -11 5 -11 2z"/>
<path d="M10794 12028 c3 -9 8 -33 12 -52 3 -20 11 -39 16 -42 14 -9 0 54 -19
86 -8 14 -12 17 -9 8z"/>
<path d="M6421 11318 c1 -288 19 -428 56 -428 11 0 13 14 8 68 -3 37 -12 160
-21 275 -8 114 -17 214 -20 222 -17 43 -24 0 -23 -137z"/>
<path d="M7230 8765 c0 -8 2 -15 4 -15 2 0 6 7 10 15 3 8 1 15 -4 15 -6 0 -10
-7 -10 -15z"/>
<path d="M7556 8616 c-50 -19 -96 -63 -96 -94 0 -13 12 -46 26 -73 29 -52 68
-74 149 -86 40 -5 46 -3 89 37 30 28 48 53 52 76 19 104 -105 183 -220 140z"/>
<path d="M8238 8563 c7 -3 16 -2 19 1 4 3 -2 6 -13 5 -11 0 -14 -3 -6 -6z"/>
<path d="M8498 8543 c6 -2 18 -2 25 0 6 3 1 5 -13 5 -14 0 -19 -2 -12 -5z"/>
<path d="M9041 8324 c0 -11 3 -14 6 -6 3 7 2 16 -1 19 -3 4 -6 -2 -5 -13z"/>
<path d="M8750 8245 c0 -8 5 -15 10 -15 6 0 10 7 10 15 0 8 -4 15 -10 15 -5 0
-10 -7 -10 -15z"/>
<path d="M7473 8026 c-52 -17 -101 -46 -134 -83 -28 -31 -55 -90 -45 -100 3
-3 6 0 6 8 0 8 22 40 49 70 36 40 62 59 102 73 70 26 197 26 253 2 91 -39 177
-141 191 -229 11 -60 -1 -55 -33 15 -54 118 -155 191 -267 190 -71 0 -117 -17
-169 -63 -95 -83 -139 -230 -106 -350 15 -54 83 -125 154 -161 50 -26 76 -32
147 -36 71 -4 92 -1 125 16 55 28 127 104 160 171 26 51 29 66 29 161 0 97 -2
109 -27 152 -37 62 -121 134 -186 158 -62 23 -183 26 -249 6z m252 -546 c-3
-5 -12 -10 -18 -10 -7 0 -6 4 3 10 19 12 23 12 15 0z"/>
<path d="M7051 6454 c0 -11 3 -14 6 -6 3 7 2 16 -1 19 -3 4 -6 -2 -5 -13z"/>
<path d="M7330 6447 c0 -9 -3 -17 -8 -17 -9 0 -36 -60 -29 -66 3 -3 15 15 28
40 12 25 19 49 16 53 -4 3 -7 -1 -7 -10z"/>
<path d="M6922 6122 c-1 -24 0 -25 9 -9 7 11 7 23 2 28 -5 5 -9 -3 -11 -19z"/>
<path d="M7777 11644 c-4 -4 -7 -14 -7 -23 0 -11 3 -12 11 -4 6 6 10 16 7 23
-2 6 -7 8 -11 4z"/>
<path d="M7770 11585 c0 -8 2 -15 4 -15 2 0 6 7 10 15 3 8 1 15 -4 15 -6 0
-10 -7 -10 -15z"/>
<path d="M12050 12230 c0 -5 5 -10 11 -10 5 0 7 5 4 10 -3 6 -8 10 -11 10 -2
0 -4 -4 -4 -10z"/>
<path d="M12080 12170 c0 -4 6 -12 13 -18 10 -8 13 -6 13 7 0 10 -6 18 -13 18
-7 0 -13 -4 -13 -7z"/>
<path d="M12120 12113 c0 -5 5 -15 10 -23 8 -12 10 -11 10 8 0 12 -4 22 -10
22 -5 0 -10 -3 -10 -7z"/>
<path d="M11906 11664 c-16 -43 4 -410 29 -520 17 -76 34 -124 44 -124 3 0 23
33 44 73 37 71 38 74 40 190 l2 118 31 27 c42 36 54 61 54 117 0 43 -1 45 -20
35 -11 -6 -20 -16 -20 -23 0 -7 -13 -28 -30 -47 l-30 -35 -20 25 c-11 14 -20
37 -20 53 0 16 -5 27 -14 27 -8 0 -28 23 -46 50 -18 28 -33 50 -35 50 -2 0 -6
-7 -9 -16z"/>
<path d="M10759 9793 c-13 -16 -12 -17 4 -4 9 7 17 15 17 17 0 8 -8 3 -21 -13z"/>
<path d="M10665 9529 c-5 -39 -4 -54 6 -60 33 -21 44 1 32 62 -12 61 -30 60
-38 -2z"/>
<path d="M8201 11134 c-23 -29 -24 -34 -15 -58 10 -25 70 -21 88 6 20 28 20
43 0 62 -23 23 -50 19 -73 -10z"/>
<path d="M13085 8621 c-3 -5 -2 -12 3 -15 5 -3 9 1 9 9 0 17 -3 19 -12 6z"/>
<path d="M10431 8174 c0 -11 3 -14 6 -6 3 7 2 16 -1 19 -3 4 -6 -2 -5 -13z"/>
<path d="M8400 7893 c-33 -13 -40 -61 -16 -118 28 -67 105 -73 126 -11 28 86
-33 158 -110 129z"/>
<path d="M8380 7479 c-6 -23 -9 -44 -6 -47 3 -3 1 -11 -5 -18 -25 -30 22 -60
57 -36 49 32 36 142 -17 142 -13 0 -21 -12 -29 -41z"/>
<path d="M2531 6632 c-6 -12 -11 -29 -10 -39 0 -11 6 -6 15 16 16 37 12 55 -5
23z"/>
<path d="M6840 5236 c0 -15 70 -83 116 -112 16 -10 48 -33 72 -51 46 -35 79
-44 65 -19 -7 13 -240 196 -249 196 -2 0 -4 -6 -4 -14z"/>
<path d="M7805 6201 c6 -5 51 -15 100 -20 125 -15 584 -36 592 -28 15 16 -18
22 -185 33 -311 21 -518 27 -507 15z"/>
<path d="M10970 5609 c0 -6 -9 -8 -20 -4 -11 4 -20 2 -20 -4 0 -12 14 -14 48
-5 25 7 30 24 7 24 -8 0 -15 -5 -15 -11z"/>
<path d="M10932 3867 c-11 -13 -72 -452 -72 -517 0 -17 4 -40 10 -50 8 -16 14
-17 39 -7 16 6 34 21 40 34 15 32 31 360 22 455 -7 82 -19 109 -39 85z"/>
<path d="M14190 10042 c0 -14 116 -67 200 -91 313 -88 459 -119 585 -126 l90
-5 -210 54 c-115 29 -296 79 -401 109 -215 63 -264 74 -264 59z"/>
<path d="M11596 2091 c-10 -16 43 -53 114 -77 39 -14 74 -23 77 -21 9 10 -84
76 -130 91 -56 19 -54 19 -61 7z"/>
<path d="M12387 1839 c7 -7 15 -10 18 -7 3 3 -2 9 -12 12 -14 6 -15 5 -6 -5z"/>
<path d="M13110 1780 c0 -5 5 -10 11 -10 5 0 7 5 4 10 -3 6 -8 10 -11 10 -2 0
-4 -4 -4 -10z"/>
<path d="M12755 1705 c-5 -2 -22 -6 -37 -9 -30 -7 -37 -21 -14 -29 16 -6 76
13 76 25 0 9 -13 16 -25 13z"/>
<path d="M13410 1661 c0 -5 11 -16 25 -25 14 -9 25 -22 25 -29 0 -26 46 -59
78 -55 l31 3 -27 42 c-17 27 -41 48 -65 57 -42 18 -67 20 -67 7z"/>
</g>
</svg>
